<svg xmlns="http://www.w3.org/2000/svg" version="1.1" xmlns:xlink="http://www.w3.org/1999/xlink" xmlns:svgjs="http://svgjs.dev/svgjs" width="1500" height="935" viewBox="0 0 1500 935"><g transform="matrix(1,0,0,1,-0.9090909090909918,0.3785425101214628)"><svg viewBox="0 0 396 247" data-background-color="#f9f9f9" preserveAspectRatio="xMidYMid meet" height="935" width="1500" xmlns="http://www.w3.org/2000/svg" xmlns:xlink="http://www.w3.org/1999/xlink"><g id="tight-bounds" transform="matrix(1,0,0,1,0.2400000000000091,-0.09999999999999432)"><svg viewBox="0 0 395.52 247.2" height="247.2" width="395.52"><g><svg></svg></g><g><svg viewBox="0 0 395.52 247.2" height="247.2" width="395.52"><g transform="matrix(1,0,0,1,75.54432000000001,100.97012869484297)"><svg viewBox="0 0 244.43135999999996 45.259742610314035" height="45.259742610314035" width="244.43135999999996"><g><svg viewBox="0 0 244.43135999999996 45.259742610314035" height="45.259742610314035" width="244.43135999999996"><g><svg viewBox="0 0 301.16892158079287 55.765462635287626" height="45.259742610314035" width="244.43135999999996"><g transform="matrix(1,0,0,1,0,3.278295083797662)"><svg viewBox="0 0 244.43135999999998 49.2088724676923" height="49.2088724676923" width="244.43135999999998"><g id="textblocktransform"><svg viewBox="0 0 244.43135999999998 49.2088724676923" height="49.2088724676923" width="244.43135999999998" id="textblock"><g><svg viewBox="0 0 244.43135999999998 31.676534617194566" height="31.676534617194566" width="244.43135999999998"><g transform="matrix(1,0,0,1,0,0)"><svg width="244.43135999999998" viewBox="5.25 -35.4 276.23 35.8" height="31.676534617194566" data-palette-color="#098cff"><path d="M5.25 0L5.25-35 10.25-35 10.25 0 5.25 0ZM36.55 0.4Q31.25 0.4 27-1.93 22.75-4.25 20.32-8.35 17.9-12.45 17.9-17.5L17.9-17.5Q17.9-22.55 20.32-26.65 22.75-30.75 27-33.08 31.25-35.4 36.55-35.4L36.55-35.4Q41.8-35.4 46.05-33.08 50.3-30.75 52.7-26.68 55.1-22.6 55.1-17.5L55.1-17.5Q55.1-12.4 52.7-8.33 50.3-4.25 46.05-1.93 41.8 0.4 36.55 0.4L36.55 0.4ZM36.55-4.05Q40.4-4.05 43.47-5.8 46.55-7.55 48.32-10.63 50.1-13.7 50.1-17.5L50.1-17.5Q50.1-21.3 48.32-24.38 46.55-27.45 43.47-29.2 40.4-30.95 36.55-30.95L36.55-30.95Q32.7-30.95 29.57-29.2 26.45-27.45 24.67-24.38 22.9-21.3 22.9-17.5L22.9-17.5Q22.9-13.7 24.67-10.63 26.45-7.55 29.57-5.8 32.7-4.05 36.55-4.05L36.55-4.05ZM87.84-35L92.84-35 92.84 0 88.75 0 67.75-26.1 67.75 0 62.75 0 62.75-35 66.84-35 87.84-8.9 87.84-35ZM113.54 0.4Q109.59 0.4 105.92-0.83 102.24-2.05 100.14-4L100.14-4 101.99-7.9Q103.99-6.1 107.12-4.98 110.24-3.85 113.54-3.85L113.54-3.85Q117.89-3.85 120.04-5.33 122.19-6.8 122.19-9.25L122.19-9.25Q122.19-11.05 121.02-12.18 119.84-13.3 118.12-13.9 116.39-14.5 113.24-15.25L113.24-15.25Q109.29-16.2 106.87-17.15 104.44-18.1 102.72-20.08 100.99-22.05 100.99-25.4L100.99-25.4Q100.99-28.2 102.47-30.45 103.94-32.7 106.94-34.05 109.94-35.4 114.39-35.4L114.39-35.4Q117.49-35.4 120.49-34.6 123.49-33.8 125.64-32.3L125.64-32.3 123.99-28.3Q121.79-29.7 119.29-30.43 116.79-31.15 114.39-31.15L114.39-31.15Q110.14-31.15 108.02-29.6 105.89-28.05 105.89-25.6L105.89-25.6Q105.89-23.8 107.09-22.68 108.29-21.55 110.07-20.93 111.84-20.3 114.89-19.6L114.89-19.6Q118.84-18.65 121.24-17.7 123.64-16.75 125.37-14.8 127.09-12.85 127.09-9.55L127.09-9.55Q127.09-6.8 125.59-4.53 124.09-2.25 121.04-0.93 117.99 0.4 113.54 0.4L113.54 0.4ZM172.94-35L177.94-35 177.94 0 173.84 0 152.84-26.1 152.84 0 147.84 0 147.84-35 151.94-35 172.94-8.9 172.94-35ZM211.69-13.1Q211.69-12.55 211.59-11.65L211.59-11.65 190.09-11.65Q190.53-8.15 193.16-6.03 195.78-3.9 199.69-3.9L199.69-3.9Q204.44-3.9 207.34-7.1L207.34-7.1 209.99-4Q208.19-1.9 205.51-0.8 202.84 0.3 199.53 0.3L199.53 0.3Q195.34 0.3 192.09-1.43 188.84-3.15 187.06-6.25 185.28-9.35 185.28-13.25L185.28-13.25Q185.28-17.1 187.01-20.2 188.74-23.3 191.76-25.03 194.78-26.75 198.59-26.75L198.59-26.75Q202.38-26.75 205.36-25.03 208.34-23.3 210.01-20.2 211.69-17.1 211.69-13.1L211.69-13.1ZM198.59-22.7Q195.13-22.7 192.81-20.6 190.49-18.5 190.09-15.1L190.09-15.1 207.09-15.1Q206.69-18.45 204.36-20.58 202.03-22.7 198.59-22.7L198.59-22.7ZM253.63-26.5L257.93-26.5 248.03 0 243.43 0 235.78-20.1 228.03 0 223.43 0 213.58-26.5 218.13-26.5 225.83-5.4 233.83-26.5 237.88-26.5 245.73-5.3 253.63-26.5ZM270.03 0.3Q266.78 0.3 263.78-0.58 260.78-1.45 259.08-2.8L259.08-2.8 261.08-6.6Q262.83-5.35 265.33-4.6 267.83-3.85 270.38-3.85L270.38-3.85Q276.68-3.85 276.68-7.45L276.68-7.45Q276.68-8.65 275.83-9.35 274.98-10.05 273.7-10.38 272.43-10.7 270.08-11.1L270.08-11.1Q266.88-11.6 264.86-12.25 262.83-12.9 261.38-14.45 259.93-16 259.93-18.8L259.93-18.8Q259.93-22.4 262.93-24.58 265.93-26.75 270.98-26.75L270.98-26.75Q273.63-26.75 276.28-26.1 278.93-25.45 280.63-24.35L280.63-24.35 278.58-20.55Q275.33-22.65 270.93-22.65L270.93-22.65Q267.88-22.65 266.28-21.65 264.68-20.65 264.68-19L264.68-19Q264.68-17.7 265.58-16.95 266.48-16.2 267.81-15.85 269.13-15.5 271.53-15.05L271.53-15.05Q274.73-14.5 276.7-13.88 278.68-13.25 280.08-11.75 281.48-10.25 281.48-7.55L281.48-7.55Q281.48-3.95 278.4-1.83 275.33 0.3 270.03 0.3L270.03 0.3Z" opacity="1" transform="matrix(1,0,0,1,0,0)" fill="#098cff" class="wordmark-text-0" data-fill-palette-color="primary" id="text-0"></path></svg></g></svg></g><g transform="matrix(1,0,0,1,0,39.15460420348339)"><svg viewBox="0 0 244.43135999999998 10.054268264208908" height="10.054268264208908" width="244.43135999999998"><g transform="matrix(1,0,0,1,0,0)"><svg width="244.43135999999998" viewBox="2.05 -39 1171.68 48.2" height="10.054268264208908" data-palette-color="#098cff"><path d="M16.95-33.6L12.25-32.55 12.25-3.45 16.95-2.4 16.95 0 2.05 0 2.05-2.4 6.75-3.45 6.75-32.55 2.05-33.6 2.05-36 16.95-36 16.95-33.6ZM20.65-2.3L24.5-3.25 24.5-23.75 20.65-24.7 20.65-27 28.35-27 29.45-22 29.65-22Q31.15-24.55 33.7-26.03 36.25-27.5 39.15-27.5L39.15-27.5Q43.3-27.5 45.3-24.8L45.3-24.8Q46.3-23.4 46.72-20.88 47.15-18.35 47.15-14.05L47.15-14.05 47.15-3.25 51-2.3 51 0 38.45 0 38.45-2.3 41.8-3.25 41.8-13.9Q41.8-17.05 41.62-18.68 41.45-20.3 41-21.25L41-21.25Q40.45-22.5 39.37-23.08 38.3-23.65 36.85-23.65L36.85-23.65Q34.1-23.65 32.1-21.9L32.1-21.9Q30.05-20 29.85-16.1L29.85-16.1 29.85-3.25 33.2-2.3 33.2 0 20.65 0 20.65-2.3ZM67.05-27.5L67.05-27.5Q70.05-27.5 72.25-26.53 74.45-25.55 75.7-23.8 76.95-22.05 76.95-19.7L76.95-19.7Q76.95-17.7 76.02-16.65 75.09-15.6 73.5-15.6L73.5-15.6Q71.9-15.6 71.09-16.53 70.3-17.45 70.3-18.8L70.3-18.8Q70.3-20.05 70.95-20.95 71.59-21.85 72.8-22.2L72.8-22.2Q72.09-23.45 70.7-24.08 69.3-24.7 67.34-24.7L67.34-24.7Q63.55-24.7 61.72-22.15 59.9-19.6 59.9-13.85L59.9-13.85Q59.9-11.3 60.22-9.6 60.55-7.9 61.2-6.7L61.2-6.7Q62.15-5 63.65-4.05 65.15-3.1 67.3-3.1L67.3-3.1Q69.55-3.1 71.7-4.1 73.84-5.1 75.34-7L75.34-7 77.25-5.5Q75.15-2.4 72.37-0.95 69.59 0.5 66.09 0.5L66.09 0.5Q62.55 0.5 59.97-0.93 57.4-2.35 55.95-5.1L55.95-5.1Q54.15-8.45 54.15-13.2L54.15-13.2Q54.15-17.55 55.72-20.75 57.3-23.95 60.22-25.73 63.15-27.5 67.05-27.5ZM84.49-3.25L84.49-23.75 80.64-24.7 80.64-27 89.84-27 89.84-3.25 93.69-2.3 93.69 0 80.64 0 80.64-2.3 84.49-3.25ZM83.84-34.9L83.84-34.9Q83.84-36.4 84.74-37.3 85.64-38.2 87.14-38.2L87.14-38.2Q88.69-38.2 89.59-37.3 90.49-36.4 90.49-34.9L90.49-34.9Q90.49-33.45 89.62-32.55 88.74-31.65 87.14-31.65L87.14-31.65Q85.59-31.65 84.72-32.52 83.84-33.4 83.84-34.9ZM107.04-2.05L107.04-2.05Q109.74-2.05 111.52-3.13 113.29-4.2 113.29-6.15L113.29-6.15Q113.29-7.7 112.19-8.68 111.09-9.65 109.47-10.25 107.84-10.85 106.19-11.35L106.19-11.35Q104.14-12 102.24-12.9 100.34-13.8 99.14-15.4 97.94-17 97.94-19.55L97.94-19.55Q97.94-23.15 100.57-25.33 103.19-27.5 107.89-27.5L107.89-27.5Q112.09-27.5 114.57-25.75 117.04-24 117.04-21.05L117.04-21.05Q117.04-19.45 116.27-18.53 115.49-17.6 114.09-17.6L114.09-17.6Q112.79-17.6 111.99-18.32 111.19-19.05 111.19-20.1L111.19-20.1Q111.19-21.05 111.69-21.83 112.19-22.6 112.99-22.95L112.99-22.95Q112.24-23.95 111.07-24.45 109.89-24.95 108.09-24.95L108.09-24.95Q105.29-24.95 103.92-23.9 102.54-22.85 102.54-20.9L102.54-20.9Q102.54-19.45 103.22-18.57 103.89-17.7 105.19-17.13 106.49-16.55 108.34-15.95L108.34-15.95Q110.14-15.4 111.87-14.78 113.59-14.15 115.02-13.23 116.44-12.3 117.29-10.95 118.14-9.6 118.14-7.6L118.14-7.6Q118.14-5.05 116.67-3.23 115.19-1.4 112.64-0.45 110.09 0.5 106.84 0.5L106.84 0.5Q102.34 0.5 99.64-1.3 96.94-3.1 96.94-6.1L96.94-6.1Q96.94-7.85 97.79-8.85 98.64-9.85 100.09-9.85L100.09-9.85Q101.29-9.85 102.19-9.15 103.09-8.45 103.09-7.3L103.09-7.3Q103.09-6.35 102.54-5.5 101.99-4.65 101.29-4.25L101.29-4.25Q101.89-3.35 103.39-2.7 104.89-2.05 107.04-2.05ZM125.74-3.25L125.74-23.75 121.89-24.7 121.89-27 131.09-27 131.09-3.25 134.94-2.3 134.94 0 121.89 0 121.89-2.3 125.74-3.25ZM125.09-34.9L125.09-34.9Q125.09-36.4 125.99-37.3 126.89-38.2 128.39-38.2L128.39-38.2Q129.94-38.2 130.84-37.3 131.74-36.4 131.74-34.9L131.74-34.9Q131.74-33.45 130.86-32.55 129.99-31.65 128.39-31.65L128.39-31.65Q126.84-31.65 125.96-32.52 125.09-33.4 125.09-34.9ZM162.09-23.75L153.34 0.5 147.69 0.5 138.84-23.75 136.04-24.7 136.04-27 147.74-27 147.74-24.7 144.44-23.75 151.14-3.7 151.34-3.7 158.09-23.75 154.99-24.7 154.99-27 164.99-27 164.99-24.7 162.09-23.75ZM189.78-13.05L189.78-13.05 172.33-13.05Q172.33-9.5 173.33-7.15L173.33-7.15Q174.28-5.05 175.96-4.08 177.63-3.1 179.73-3.1L179.73-3.1Q182.03-3.1 184.06-4.08 186.08-5.05 187.63-6.85L187.63-6.85 189.58-5.35Q187.83-2.95 185.18-1.23 182.53 0.5 178.43 0.5L178.43 0.5Q174.93 0.5 172.28-0.98 169.63-2.45 168.23-5.3L168.23-5.3Q167.48-6.85 167.13-8.75 166.78-10.65 166.78-12.8L166.78-12.8Q166.78-19.8 170.01-23.65 173.23-27.5 178.88-27.5L178.88-27.5Q184.13-27.5 187.03-24.33 189.93-21.15 189.93-15.55L189.93-15.55Q189.93-15.05 189.91-14.58 189.88-14.1 189.78-13.05ZM178.68-24.55L178.68-24.55Q172.93-24.55 172.38-15.75L172.38-15.75 184.38-15.75 184.38-17.3Q184.38-20.8 182.88-22.68 181.38-24.55 178.68-24.55ZM220.23-11.95L207.68-11.95 207.68-15.8 220.23-15.8 220.23-11.95ZM271.82-18.4L271.82-18.4Q271.82-14.1 270.52-10.28 269.22-6.45 266.82-3.85L266.82-3.85Q264.72-1.65 261.8-0.58 258.87 0.5 254.97 0.5L254.97 0.5Q251.07 0.5 248.12-0.55 245.17-1.6 243.22-3.7L243.22-3.7Q240.97-6.05 239.7-9.68 238.42-13.3 238.42-17.6L238.42-17.6Q238.42-21.95 239.75-25.78 241.07-29.6 243.42-32.15L243.42-32.15Q245.52-34.4 248.35-35.45 251.17-36.5 255.12-36.5L255.12-36.5Q258.97-36.5 261.9-35.48 264.82-34.45 266.97-32.3L266.97-32.3Q269.37-29.85 270.6-26.18 271.82-22.5 271.82-18.4ZM244.67-18.6L244.67-18.6Q244.67-14.5 245.37-11.35 246.07-8.2 247.37-6.2L247.37-6.2Q248.62-4.35 250.55-3.43 252.47-2.5 255.27-2.5L255.27-2.5Q260.37-2.5 262.82-5.8L262.82-5.8Q264.17-7.6 264.87-10.6 265.57-13.6 265.57-17.7L265.57-17.7Q265.57-21.8 264.85-24.88 264.12-27.95 262.82-29.85L262.82-29.85Q261.52-31.75 259.55-32.65 257.57-33.55 254.92-33.55L254.92-33.55Q252.37-33.55 250.52-32.7 248.67-31.85 247.42-30.25L247.42-30.25Q244.67-26.6 244.67-18.6ZM275.62-27L284.32-27 284.32-13.1Q284.32-9.9 284.5-8.28 284.67-6.65 285.07-5.75L285.07-5.75Q285.57-4.55 286.62-3.93 287.67-3.3 288.92-3.3L288.92-3.3Q290.27-3.3 291.47-3.8 292.67-4.3 293.62-5.15L293.62-5.15Q295.67-7 295.87-10.9L295.87-10.9 295.87-23.75 291.52-24.7 291.52-27 301.22-27 301.22-3.25 305.07-2.3 305.07 0 296.82 0.5 296.27-5 296.07-5Q294.62-2.45 292.12-0.98 289.62 0.5 286.77 0.5L286.77 0.5Q284.87 0.5 283.3-0.23 281.72-0.95 280.82-2.2L280.82-2.2Q279.87-3.6 279.42-6.15 278.97-8.7 278.97-12.95L278.97-12.95 278.97-23.75 275.62-24.7 275.62-27ZM311.47-24.25L306.62-24.25 306.62-26.3 311.47-27 312.12-33.25 316.82-33.95 316.82-27 323.22-27 323.22-24.25 316.82-24.25 316.82-6.9Q316.82-5.2 316.87-4.58 316.92-3.95 317.07-3.55L317.07-3.55Q317.22-3.2 317.62-3.08 318.02-2.95 318.92-2.95L318.92-2.95 322.42-2.95 322.42-1.25Q319.82-0.35 317.87 0.08 315.92 0.5 314.77 0.5L314.77 0.5Q312.52 0.5 311.87-1.35L311.87-1.35Q311.67-1.95 311.57-2.9 311.47-3.85 311.47-5.7L311.47-5.7 311.47-24.25ZM340.42-23.85L340.42-23.85Q340.27-23.95 340.09-24 339.92-24.05 339.72-24.05L339.72-24.05Q339.17-24.05 338.47-23.45 337.77-22.85 337.14-21.95 336.52-21.05 336.07-20L336.07-20Q335.37-18.3 334.97-16.35 334.57-14.4 334.57-12.1L334.57-12.1 334.57-3.25 339.97-2.3 339.97 0 325.37 0 325.37-2.3 329.22-3.25 329.22-24 325.37-24.95 325.37-27 333.07-27 334.17-20.4 334.37-20.4Q335.52-23.8 337.47-25.65 339.42-27.5 341.77-27.5L341.77-27.5Q343.72-27.5 345.02-26.28 346.32-25.05 346.32-23L346.32-23Q346.32-21.5 345.49-20.5 344.67-19.5 343.27-19.5L343.27-19.5Q341.72-19.5 340.94-20.38 340.17-21.25 340.17-22.5L340.17-22.5Q340.17-22.8 340.19-23.05 340.22-23.3 340.42-23.85ZM352.36-3.25L352.36-23.75 348.51-24.7 348.51-27 357.71-27 357.71-3.25 361.56-2.3 361.56 0 348.51 0 348.51-2.3 352.36-3.25ZM351.71-34.9L351.71-34.9Q351.71-36.4 352.61-37.3 353.51-38.2 355.01-38.2L355.01-38.2Q356.56-38.2 357.46-37.3 358.36-36.4 358.36-34.9L358.36-34.9Q358.36-33.45 357.49-32.55 356.61-31.65 355.01-31.65L355.01-31.65Q353.46-31.65 352.59-32.52 351.71-33.4 351.71-34.9ZM388.41 0.45L388.41 0.45Q388.41 4.5 385.16 6.85 381.91 9.2 375.66 9.2L375.66 9.2Q372.06 9.2 369.46 8.5 366.86 7.8 365.46 6.4 364.06 5 364.06 2.95L364.06 2.95Q364.06 0.6 365.49-0.73 366.91-2.05 369.46-2.3L369.46-2.3 369.46-2.5Q366.01-3.5 366.01-6.35L366.01-6.35Q366.01-7.4 366.51-8.38 367.01-9.35 368.09-10.18 369.16-11 370.81-11.45L370.81-11.45Q368.31-12.25 366.91-14.2 365.51-16.15 365.51-18.9L365.51-18.9Q365.51-22.9 368.26-25.2 371.01-27.5 375.81-27.5L375.81-27.5Q378.46-27.5 380.34-26.93 382.21-26.35 383.56-25.2L383.56-25.2 385.26-25.8 389.86-28 390.71-28 390.71-23.35 389.86-23.35 386.36-23.75 384.81-23.75Q386.11-21.9 386.11-19.2L386.11-19.2Q386.11-15.2 383.44-12.9 380.76-10.6 375.96-10.6L375.96-10.6Q375.46-10.6 374.96-10.63 374.46-10.65 373.96-10.7L373.96-10.7Q372.01-10.4 370.96-9.7 369.91-9 369.91-7.85L369.91-7.85Q369.91-6.75 370.84-6.38 371.76-6 374.31-6L374.31-6 380.11-6Q384.21-6 386.31-4.42 388.41-2.85 388.41 0.45ZM377.41-1.9L377.41-1.9 374.66-1.9Q371.31-1.9 369.81-0.78 368.31 0.35 368.31 2.15L368.31 2.15Q368.31 6.45 375.91 6.45L375.91 6.45Q380.01 6.45 382.16 5.2 384.31 3.95 384.31 1.6L384.31 1.6Q384.31-0.35 382.79-1.13 381.26-1.9 377.41-1.9ZM370.41-19.1L370.41-19.1Q370.41-16.15 371.74-14.63 373.06-13.1 375.71-13.1L375.71-13.1Q378.56-13.1 379.89-14.63 381.21-16.15 381.21-19.1L381.21-19.1Q381.21-22 379.89-23.48 378.56-24.95 375.71-24.95L375.71-24.95Q373.06-24.95 371.74-23.48 370.41-22 370.41-19.1ZM409.91-2.3L413.26-3.25 413.26-13.9Q413.26-17.15 413.08-18.75 412.91-20.35 412.46-21.25L412.46-21.25Q411.26-23.7 408.06-23.7L408.06-23.7Q406.66-23.7 405.36-23.13 404.06-22.55 403.16-21.55L403.16-21.55Q402.26-20.7 401.81-19.43 401.36-18.15 401.31-16.3L401.31-16.3 401.31-3.25 404.66-2.3 404.66 0 392.11 0 392.11-2.3 395.96-3.25 395.96-35.75 392.11-36.7 392.11-39 401.31-39 401.31-22.3Q402.76-24.7 405.11-26.1 407.46-27.5 410.21-27.5L410.21-27.5Q412.26-27.5 413.81-26.85 415.36-26.2 416.36-24.95L416.36-24.95Q417.56-23.5 418.08-20.93 418.61-18.35 418.61-14.05L418.61-14.05 418.61-3.25 422.46-2.3 422.46 0 409.91 0 409.91-2.3ZM428.66-24.25L423.81-24.25 423.81-26.3 428.66-27 429.31-33.25 434.01-33.95 434.01-27 440.41-27 440.41-24.25 434.01-24.25 434.01-6.9Q434.01-5.2 434.06-4.58 434.11-3.95 434.26-3.55L434.26-3.55Q434.41-3.2 434.81-3.08 435.21-2.95 436.11-2.95L436.11-2.95 439.61-2.95 439.61-1.25Q437.01-0.35 435.06 0.08 433.11 0.5 431.96 0.5L431.96 0.5Q429.71 0.5 429.06-1.35L429.06-1.35Q428.86-1.95 428.76-2.9 428.66-3.85 428.66-5.7L428.66-5.7 428.66-24.25ZM469.1-11.95L456.55-11.95 456.55-15.8 469.1-15.8 469.1-11.95ZM487.09-2.4L491.29-3.45 491.29-32.55 487.09-33.6 487.09-36 497.29-36 515.34-8.75 515.34-32.55 511.14-33.6 511.14-36 523.29-36 523.29-33.6 519.09-32.55 519.09 0 514.84 0 495.04-29.55 495.04-3.45 499.24-2.4 499.24 0 487.09 0 487.09-2.4ZM551.29-13.65L551.29-13.65Q551.29-10.45 550.34-7.55 549.39-4.65 547.64-2.75L547.64-2.75Q546.09-1.05 543.84-0.28 541.59 0.5 538.69 0.5L538.69 0.5Q535.84 0.5 533.62-0.28 531.39-1.05 529.84-2.7L529.84-2.7Q528.14-4.55 527.22-7.3 526.29-10.05 526.29-13.25L526.29-13.25Q526.29-16.5 527.24-19.43 528.19-22.35 529.94-24.25L529.94-24.25Q531.59-25.95 533.77-26.73 535.94-27.5 538.84-27.5L538.84-27.5Q541.69-27.5 543.94-26.73 546.19-25.95 547.74-24.3L547.74-24.3Q549.49-22.45 550.39-19.65 551.29-16.85 551.29-13.65ZM532.69-10.75L532.69-10.75Q532.89-8.4 533.59-6.75 534.29-5.1 535.39-4.1L535.39-4.1Q536.49-3.3 537.67-3 538.84-2.7 540.29-3L540.29-3Q543.14-3.85 544.29-7.45L544.29-7.45Q544.89-9.4 545.04-11.65 545.19-13.9 544.89-16.3L544.89-16.3Q544.69-18.6 543.99-20.28 543.29-21.95 542.19-22.9L542.19-22.9Q541.14-23.75 539.94-24.03 538.74-24.3 537.24-24L537.24-24Q534.39-23.15 533.34-19.55L533.34-19.55Q532.14-15.65 532.69-10.75ZM569.29-11.95L556.74-11.95 556.74-15.8 569.29-15.8 569.29-11.95ZM574.14-2.3L577.99-3.25 577.99-23.75 574.14-24.7 574.14-27 581.84-27 582.94-22 583.14-22Q584.64-24.55 587.19-26.03 589.74-27.5 592.64-27.5L592.64-27.5Q596.79-27.5 598.79-24.8L598.79-24.8Q599.79-23.4 600.21-20.88 600.64-18.35 600.64-14.05L600.64-14.05 600.64-3.25 604.49-2.3 604.49 0 591.94 0 591.94-2.3 595.29-3.25 595.29-13.9Q595.29-17.05 595.11-18.68 594.94-20.3 594.49-21.25L594.49-21.25Q593.94-22.5 592.86-23.08 591.79-23.65 590.34-23.65L590.34-23.65Q587.59-23.65 585.59-21.9L585.59-21.9Q583.54-20 583.34-16.1L583.34-16.1 583.34-3.25 586.69-2.3 586.69 0 574.14 0 574.14-2.3ZM632.63-13.65L632.63-13.65Q632.63-10.45 631.68-7.55 630.73-4.65 628.98-2.75L628.98-2.75Q627.43-1.05 625.18-0.28 622.93 0.5 620.03 0.5L620.03 0.5Q617.18 0.5 614.96-0.28 612.73-1.05 611.18-2.7L611.18-2.7Q609.48-4.55 608.56-7.3 607.63-10.05 607.63-13.25L607.63-13.25Q607.63-16.5 608.58-19.43 609.53-22.35 611.28-24.25L611.28-24.25Q612.93-25.95 615.11-26.73 617.28-27.5 620.18-27.5L620.18-27.5Q623.03-27.5 625.28-26.73 627.53-25.95 629.08-24.3L629.08-24.3Q630.83-22.45 631.73-19.65 632.63-16.85 632.63-13.65ZM614.03-10.75L614.03-10.75Q614.23-8.4 614.93-6.75 615.63-5.1 616.73-4.1L616.73-4.1Q617.83-3.3 619.01-3 620.18-2.7 621.63-3L621.63-3Q624.48-3.85 625.63-7.45L625.63-7.45Q626.23-9.4 626.38-11.65 626.53-13.9 626.23-16.3L626.23-16.3Q626.03-18.6 625.33-20.28 624.63-21.95 623.53-22.9L623.53-22.9Q622.48-23.75 621.28-24.03 620.08-24.3 618.58-24L618.58-24Q615.73-23.15 614.68-19.55L614.68-19.55Q613.48-15.65 614.03-10.75ZM636.48-2.3L640.33-3.25 640.33-23.75 636.48-24.7 636.48-27 644.18-27 645.28-22 645.48-22Q646.98-24.55 649.53-26.03 652.08-27.5 654.98-27.5L654.98-27.5Q659.13-27.5 661.13-24.8L661.13-24.8Q662.13-23.4 662.56-20.88 662.98-18.35 662.98-14.05L662.98-14.05 662.98-3.25 666.83-2.3 666.83 0 654.28 0 654.28-2.3 657.63-3.25 657.63-13.9Q657.63-17.05 657.46-18.68 657.28-20.3 656.83-21.25L656.83-21.25Q656.28-22.5 655.21-23.08 654.13-23.65 652.68-23.65L652.68-23.65Q649.93-23.65 647.93-21.9L647.93-21.9Q645.88-20 645.68-16.1L645.68-16.1 645.68-3.25 649.03-2.3 649.03 0 636.48 0 636.48-2.3ZM680.03-2.05L680.03-2.05Q682.73-2.05 684.5-3.13 686.28-4.2 686.28-6.15L686.28-6.15Q686.28-7.7 685.18-8.68 684.08-9.65 682.45-10.25 680.83-10.85 679.18-11.35L679.18-11.35Q677.13-12 675.23-12.9 673.33-13.8 672.13-15.4 670.93-17 670.93-19.55L670.93-19.55Q670.93-23.15 673.55-25.33 676.18-27.5 680.88-27.5L680.88-27.5Q685.08-27.5 687.55-25.75 690.03-24 690.03-21.05L690.03-21.05Q690.03-19.45 689.25-18.53 688.48-17.6 687.08-17.6L687.08-17.6Q685.78-17.6 684.98-18.32 684.18-19.05 684.18-20.1L684.18-20.1Q684.18-21.05 684.68-21.83 685.18-22.6 685.98-22.95L685.98-22.95Q685.23-23.95 684.05-24.45 682.88-24.95 681.08-24.95L681.08-24.95Q678.28-24.95 676.9-23.9 675.53-22.85 675.53-20.9L675.53-20.9Q675.53-19.45 676.2-18.57 676.88-17.7 678.18-17.13 679.48-16.55 681.33-15.95L681.33-15.95Q683.13-15.4 684.85-14.78 686.58-14.15 688-13.23 689.43-12.3 690.28-10.95 691.13-9.6 691.13-7.6L691.13-7.6Q691.13-5.05 689.65-3.23 688.18-1.4 685.63-0.45 683.08 0.5 679.83 0.5L679.83 0.5Q675.33 0.5 672.63-1.3 669.93-3.1 669.93-6.1L669.93-6.1Q669.93-7.85 670.78-8.85 671.63-9.85 673.08-9.85L673.08-9.85Q674.28-9.85 675.18-9.15 676.08-8.45 676.08-7.3L676.08-7.3Q676.08-6.35 675.53-5.5 674.98-4.65 674.28-4.25L674.28-4.25Q674.88-3.35 676.38-2.7 677.88-2.05 680.03-2.05ZM718.38-13.05L718.38-13.05 700.93-13.05Q700.93-9.5 701.93-7.15L701.93-7.15Q702.88-5.05 704.55-4.08 706.23-3.1 708.33-3.1L708.33-3.1Q710.63-3.1 712.65-4.08 714.68-5.05 716.23-6.85L716.23-6.85 718.18-5.35Q716.43-2.95 713.78-1.23 711.13 0.5 707.03 0.5L707.03 0.5Q703.53 0.5 700.88-0.98 698.23-2.45 696.83-5.3L696.83-5.3Q696.08-6.85 695.73-8.75 695.38-10.65 695.38-12.8L695.38-12.8Q695.38-19.8 698.6-23.65 701.83-27.5 707.48-27.5L707.48-27.5Q712.73-27.5 715.63-24.33 718.53-21.15 718.53-15.55L718.53-15.55Q718.53-15.05 718.5-14.58 718.48-14.1 718.38-13.05ZM707.28-24.55L707.28-24.55Q701.53-24.55 700.98-15.75L700.98-15.75 712.98-15.75 712.98-17.3Q712.98-20.8 711.48-22.68 709.98-24.55 707.28-24.55ZM722.27-2.3L726.12-3.25 726.12-23.75 722.27-24.7 722.27-27 729.97-27 731.07-22 731.27-22Q732.77-24.55 735.32-26.03 737.87-27.5 740.77-27.5L740.77-27.5Q744.92-27.5 746.92-24.8L746.92-24.8Q747.92-23.4 748.35-20.88 748.77-18.35 748.77-14.05L748.77-14.05 748.77-3.25 752.62-2.3 752.62 0 740.07 0 740.07-2.3 743.42-3.25 743.42-13.9Q743.42-17.05 743.25-18.68 743.07-20.3 742.62-21.25L742.62-21.25Q742.07-22.5 741-23.08 739.92-23.65 738.47-23.65L738.47-23.65Q735.72-23.65 733.72-21.9L733.72-21.9Q731.67-20 731.47-16.1L731.47-16.1 731.47-3.25 734.82-2.3 734.82 0 722.27 0 722.27-2.3ZM765.82-2.05L765.82-2.05Q768.52-2.05 770.3-3.13 772.07-4.2 772.07-6.15L772.07-6.15Q772.07-7.7 770.97-8.68 769.87-9.65 768.25-10.25 766.62-10.85 764.97-11.35L764.97-11.35Q762.92-12 761.02-12.9 759.12-13.8 757.92-15.4 756.72-17 756.72-19.55L756.72-19.55Q756.72-23.15 759.35-25.33 761.97-27.5 766.67-27.5L766.67-27.5Q770.87-27.5 773.35-25.75 775.82-24 775.82-21.05L775.82-21.05Q775.82-19.45 775.05-18.53 774.27-17.6 772.87-17.6L772.87-17.6Q771.57-17.6 770.77-18.32 769.97-19.05 769.97-20.1L769.97-20.1Q769.97-21.05 770.47-21.83 770.97-22.6 771.77-22.95L771.77-22.95Q771.02-23.95 769.85-24.45 768.67-24.95 766.87-24.95L766.87-24.95Q764.07-24.95 762.7-23.9 761.32-22.85 761.32-20.9L761.32-20.9Q761.32-19.45 762-18.57 762.67-17.7 763.97-17.13 765.27-16.55 767.12-15.95L767.12-15.95Q768.92-15.4 770.65-14.78 772.37-14.15 773.8-13.23 775.22-12.3 776.07-10.95 776.92-9.6 776.92-7.6L776.92-7.6Q776.92-5.05 775.45-3.23 773.97-1.4 771.42-0.45 768.87 0.5 765.62 0.5L765.62 0.5Q761.12 0.5 758.42-1.3 755.72-3.1 755.72-6.1L755.72-6.1Q755.72-7.85 756.57-8.85 757.42-9.85 758.87-9.85L758.87-9.85Q760.07-9.85 760.97-9.15 761.87-8.45 761.87-7.3L761.87-7.3Q761.87-6.35 761.32-5.5 760.77-4.65 760.07-4.25L760.07-4.25Q760.67-3.35 762.17-2.7 763.67-2.05 765.82-2.05ZM804.17-13.05L804.17-13.05 786.72-13.05Q786.72-9.5 787.72-7.15L787.72-7.15Q788.67-5.05 790.34-4.08 792.02-3.1 794.12-3.1L794.12-3.1Q796.42-3.1 798.44-4.08 800.47-5.05 802.02-6.85L802.02-6.85 803.97-5.35Q802.22-2.95 799.57-1.23 796.92 0.5 792.82 0.5L792.82 0.5Q789.32 0.5 786.67-0.98 784.02-2.45 782.62-5.3L782.62-5.3Q781.87-6.85 781.52-8.75 781.17-10.65 781.17-12.8L781.17-12.8Q781.17-19.8 784.39-23.65 787.62-27.5 793.27-27.5L793.27-27.5Q798.52-27.5 801.42-24.33 804.32-21.15 804.32-15.55L804.32-15.55Q804.32-15.05 804.29-14.58 804.27-14.1 804.17-13.05ZM793.07-24.55L793.07-24.55Q787.32-24.55 786.77-15.75L786.77-15.75 798.77-15.75 798.77-17.3Q798.77-20.8 797.27-22.68 795.77-24.55 793.07-24.55ZM834.61-11.95L822.06-11.95 822.06-15.8 834.61-15.8 834.61-11.95ZM866.36 0.55L866.36 0.55Q863.46 0.55 861.18-0.33 858.91-1.2 857.31-2.9L857.31-2.9 856.76 0 853.46 0 853.46-11.6 857.01-11.6Q857.31-6.75 859.43-4.6 861.56-2.45 865.56-2.45L865.56-2.45Q868.91-2.45 870.66-3.78 872.41-5.1 872.41-7.7L872.41-7.7Q872.41-9.85 871.33-11.25 870.26-12.65 868.23-13.75 866.21-14.85 863.41-15.95L863.41-15.95Q860.31-17.25 858.11-18.55 855.91-19.85 854.76-21.7 853.61-23.55 853.61-26.45L853.61-26.45Q853.61-31.25 856.58-33.9 859.56-36.55 864.56-36.55L864.56-36.55Q869.51-36.55 872.61-33.75L872.61-33.75 873.01-36 876.31-36 876.31-24.4 872.96-24.4Q872.96-29.15 871.18-31.38 869.41-33.6 865.61-33.6L865.61-33.6Q859.16-33.6 859.16-27.65L859.16-27.65Q859.16-25.95 859.81-24.9 860.46-23.85 862.03-22.95 863.61-22.05 866.51-20.8L866.51-20.8Q870.66-19 873.18-17.35 875.71-15.7 876.83-13.8 877.96-11.9 877.96-9.3L877.96-9.3Q877.96-6.15 876.46-3.95 874.96-1.75 872.36-0.6 869.76 0.55 866.36 0.55ZM885.76-24.25L880.91-24.25 880.91-26.3 885.76-27 886.41-33.25 891.11-33.95 891.11-27 897.51-27 897.51-24.25 891.11-24.25 891.11-6.9Q891.11-5.2 891.16-4.58 891.21-3.95 891.36-3.55L891.36-3.55Q891.51-3.2 891.91-3.08 892.31-2.95 893.21-2.95L893.21-2.95 896.71-2.95 896.71-1.25Q894.11-0.35 892.16 0.08 890.21 0.5 889.06 0.5L889.06 0.5Q886.81 0.5 886.16-1.35L886.16-1.35Q885.96-1.95 885.86-2.9 885.76-3.85 885.76-5.7L885.76-5.7 885.76-24.25ZM923.15-13.05L923.15-13.05 905.7-13.05Q905.7-9.5 906.7-7.15L906.7-7.15Q907.65-5.05 909.33-4.08 911-3.1 913.1-3.1L913.1-3.1Q915.4-3.1 917.43-4.08 919.45-5.05 921-6.85L921-6.85 922.95-5.35Q921.2-2.95 918.55-1.23 915.9 0.5 911.8 0.5L911.8 0.5Q908.3 0.5 905.65-0.98 903-2.45 901.6-5.3L901.6-5.3Q900.85-6.85 900.5-8.75 900.15-10.65 900.15-12.8L900.15-12.8Q900.15-19.8 903.38-23.65 906.6-27.5 912.25-27.5L912.25-27.5Q917.5-27.5 920.4-24.33 923.3-21.15 923.3-15.55L923.3-15.55Q923.3-15.05 923.28-14.58 923.25-14.1 923.15-13.05ZM912.05-24.55L912.05-24.55Q906.3-24.55 905.75-15.75L905.75-15.75 917.75-15.75 917.75-17.3Q917.75-20.8 916.25-22.68 914.75-24.55 912.05-24.55ZM942.1-23.85L942.1-23.85Q941.95-23.95 941.78-24 941.6-24.05 941.4-24.05L941.4-24.05Q940.85-24.05 940.15-23.45 939.45-22.85 938.83-21.95 938.2-21.05 937.75-20L937.75-20Q937.05-18.3 936.65-16.35 936.25-14.4 936.25-12.1L936.25-12.1 936.25-3.25 941.65-2.3 941.65 0 927.05 0 927.05-2.3 930.9-3.25 930.9-24 927.05-24.95 927.05-27 934.75-27 935.85-20.4 936.05-20.4Q937.2-23.8 939.15-25.65 941.1-27.5 943.45-27.5L943.45-27.5Q945.4-27.5 946.7-26.28 948-25.05 948-23L948-23Q948-21.5 947.18-20.5 946.35-19.5 944.95-19.5L944.95-19.5Q943.4-19.5 942.63-20.38 941.85-21.25 941.85-22.5L941.85-22.5Q941.85-22.8 941.88-23.05 941.9-23.3 942.1-23.85ZM950.2-2.3L954.05-3.25 954.05-23.75 950.2-24.7 950.2-27 957.9-27 959-22 959.2-22Q960.7-24.55 963.25-26.03 965.8-27.5 968.7-27.5L968.7-27.5Q972.85-27.5 974.85-24.8L974.85-24.8Q975.85-23.4 976.27-20.88 976.7-18.35 976.7-14.05L976.7-14.05 976.7-3.25 980.55-2.3 980.55 0 968 0 968-2.3 971.35-3.25 971.35-13.9Q971.35-17.05 971.17-18.68 971-20.3 970.55-21.25L970.55-21.25Q970-22.5 968.92-23.08 967.85-23.65 966.4-23.65L966.4-23.65Q963.65-23.65 961.65-21.9L961.65-21.9Q959.6-20 959.4-16.1L959.4-16.1 959.4-3.25 962.75-2.3 962.75 0 950.2 0 950.2-2.3ZM1008.64-2.4L1012.84-3.45 1012.84-32.55 1008.64-33.6 1008.64-36 1018.84-36 1036.89-8.75 1036.89-32.55 1032.69-33.6 1032.69-36 1044.84-36 1044.84-33.6 1040.64-32.55 1040.64 0 1036.39 0 1016.59-29.55 1016.59-3.45 1020.79-2.4 1020.79 0 1008.64 0 1008.64-2.4ZM1070.64-25.1L1070.64-11.9 1067.59-11.9 1066.69-16.85 1058.89-16.85 1058.89-3.25 1073.54-3.25 1075.04-11.15 1078.44-11.15 1078.44 0 1048.69 0 1048.69-2.4 1053.39-3.45 1053.39-32.55 1048.69-33.6 1048.69-36 1077.34-36 1077.34-25.4 1074.24-25.4 1072.69-32.85 1058.89-32.85 1058.89-20.1 1066.69-20.1 1067.59-25.1 1070.64-25.1ZM1117.74-5.25L1117.94-5.25 1125.44-32.6 1121.49-33.6 1121.49-36 1133.44-36 1133.44-33.6 1129.29-32.55 1119.89 0 1114.19 0 1107.09-23.2 1100.69 0 1094.99 0 1084.64-32.55 1080.74-33.6 1080.74-36 1095.44-36 1095.44-33.6 1090.64-32.55 1098.49-5.25 1098.69-5.25 1105.34-29.8 1104.74-32.55 1100.84-33.6 1100.84-36 1114.54-36 1114.54-33.6 1109.94-32.55 1117.74-5.25ZM1149.03 0.55L1149.03 0.55Q1146.13 0.55 1143.86-0.33 1141.58-1.2 1139.98-2.9L1139.98-2.9 1139.43 0 1136.13 0 1136.13-11.6 1139.68-11.6Q1139.98-6.75 1142.11-4.6 1144.23-2.45 1148.23-2.45L1148.23-2.45Q1151.58-2.45 1153.33-3.78 1155.08-5.1 1155.08-7.7L1155.08-7.7Q1155.08-9.85 1154.01-11.25 1152.93-12.65 1150.91-13.75 1148.88-14.85 1146.08-15.95L1146.08-15.95Q1142.98-17.25 1140.78-18.55 1138.58-19.85 1137.43-21.7 1136.28-23.55 1136.28-26.45L1136.28-26.45Q1136.28-31.25 1139.26-33.9 1142.23-36.55 1147.23-36.55L1147.23-36.55Q1152.18-36.55 1155.28-33.75L1155.28-33.75 1155.68-36 1158.98-36 1158.98-24.4 1155.63-24.4Q1155.63-29.15 1153.86-31.38 1152.08-33.6 1148.28-33.6L1148.28-33.6Q1141.83-33.6 1141.83-27.65L1141.83-27.65Q1141.83-25.95 1142.48-24.9 1143.13-23.85 1144.71-22.95 1146.28-22.05 1149.18-20.8L1149.18-20.8Q1153.33-19 1155.86-17.35 1158.38-15.7 1159.51-13.8 1160.63-11.9 1160.63-9.3L1160.63-9.3Q1160.63-6.15 1159.13-3.95 1157.63-1.75 1155.03-0.6 1152.43 0.55 1149.03 0.55ZM1171.98-10.25L1171.98-10.25 1168.68-10.25Q1168.68-12.2 1168.58-14.38 1168.48-16.55 1168.36-18.65 1168.23-20.75 1168.11-22.43 1167.98-24.1 1167.88-25L1167.88-25Q1167.73-26.85 1167.48-28.65 1167.23-30.45 1167.23-32.5L1167.23-32.5Q1167.23-34.25 1168.03-35.38 1168.83-36.5 1170.43-36.5L1170.43-36.5Q1172.13-36.5 1172.78-35.33 1173.43-34.15 1173.43-32.55L1173.43-32.55Q1173.43-30.45 1173.21-28.65 1172.98-26.85 1172.78-25L1172.78-25Q1172.78-24.1 1172.63-22.43 1172.48-20.75 1172.36-18.65 1172.23-16.55 1172.11-14.38 1171.98-12.2 1171.98-10.25ZM1173.73-2.6L1173.73-2.6Q1173.73-1 1172.83-0.13 1171.93 0.75 1170.33 0.75L1170.33 0.75Q1168.78 0.75 1167.88-0.13 1166.98-1 1166.98-2.6L1166.98-2.6Q1166.98-4.2 1167.88-5.13 1168.78-6.05 1170.33-6.05L1170.33-6.05Q1171.88-6.05 1172.81-5.13 1173.73-4.2 1173.73-2.6Z" opacity="1" transform="matrix(1,0,0,1,0,0)" fill="#098cff" class="slogan-text-1" data-fill-palette-color="secondary" id="text-1"></path></svg></g></svg></g></svg></g></svg></g><g transform="matrix(1,0,0,1,251.9094295862888,0)"><svg viewBox="0 0 49.25949199450407 55.765462635287626" height="55.765462635287626" width="49.25949199450407"><g><svg xmlns="http://www.w3.org/2000/svg" xmlns:xlink="http://www.w3.org/1999/xlink" version="1.1" x="0" y="0" viewBox="3.5 0 53 60" style="enable-background:new 0 0 60 60;" xml:space="preserve" height="55.765462635287626" width="49.25949199450407" class="icon-icon-0" data-fill-palette-color="accent" id="icon-0"><g fill="#098cff" data-fill-palette-color="accent"><path d="M55.5 60h-33c-3.86 0-7-3.141-7-7V7c0-2.757-2.243-5-5-5-0.552 0-1-0.447-1-1s0.448-1 1-1h39c3.859 0 7 3.141 7 7v52C56.5 59.553 56.052 60 55.5 60zM15.395 2C16.693 3.271 17.5 5.043 17.5 7v46c0 2.757 2.243 5 5 5h32V7c0-2.757-2.243-5-5-5H15.395z" fill="#098cff" data-fill-palette-color="accent"></path><path d="M16.5 54h-6c-3.86 0-7-3.141-7-7V7c0-3.859 3.14-7 7-7h13c0.552 0 1 0.447 1 1s-0.448 1-1 1h-13c-2.757 0-5 2.243-5 5v40c0 2.757 2.243 5 5 5h6c0.552 0 1 0.447 1 1S17.052 54 16.5 54z" fill="#098cff" data-fill-palette-color="accent"></path><path d="M49.5 46h-27c-0.552 0-1-0.447-1-1s0.448-1 1-1h27c0.552 0 1 0.447 1 1S50.052 46 49.5 46z" fill="#098cff" data-fill-palette-color="accent"></path><path d="M49.5 40h-27c-0.552 0-1-0.447-1-1s0.448-1 1-1h27c0.552 0 1 0.447 1 1S50.052 40 49.5 40z" fill="#098cff" data-fill-palette-color="accent"></path><path d="M49.5 30h-27c-0.552 0-1-0.447-1-1s0.448-1 1-1h27c0.552 0 1 0.447 1 1S50.052 30 49.5 30z" fill="#098cff" data-fill-palette-color="accent"></path><path d="M49.5 26h-27c-0.552 0-1-0.447-1-1s0.448-1 1-1h27c0.552 0 1 0.447 1 1S50.052 26 49.5 26z" fill="#098cff" data-fill-palette-color="accent"></path><path d="M49.5 22h-27c-0.552 0-1-0.447-1-1s0.448-1 1-1h27c0.552 0 1 0.447 1 1S50.052 22 49.5 22z" fill="#098cff" data-fill-palette-color="accent"></path><path d="M49.5 18h-13c-0.552 0-1-0.447-1-1s0.448-1 1-1h13c0.552 0 1 0.447 1 1S50.052 18 49.5 18z" fill="#098cff" data-fill-palette-color="accent"></path><path d="M49.5 14h-13c-0.552 0-1-0.447-1-1s0.448-1 1-1h13c0.552 0 1 0.447 1 1S50.052 14 49.5 14z" fill="#098cff" data-fill-palette-color="accent"></path><path d="M49.5 8h-13c-0.552 0-1-0.447-1-1s0.448-1 1-1h13c0.552 0 1 0.447 1 1S50.052 8 49.5 8z" fill="#098cff" data-fill-palette-color="accent"></path><path d="M49.5 50h-27c-0.552 0-1-0.447-1-1s0.448-1 1-1h27c0.552 0 1 0.447 1 1S50.052 50 49.5 50z" fill="#098cff" data-fill-palette-color="accent"></path><path d="M32.5 18h-10c-0.552 0-1-0.447-1-1V7c0-0.553 0.448-1 1-1h10c0.552 0 1 0.447 1 1v10C33.5 17.553 33.052 18 32.5 18zM23.5 16h8V8h-8V16z" fill="#098cff" data-fill-palette-color="accent"></path></g></svg></g></svg></g></svg></g></svg></g></svg></g><path d="M205.979 94.97L205.979 30.063 393.054 30.063 393.054 217.137 205.979 217.137 205.979 152.23 208.298 152.23 208.298 214.819 390.735 214.819 390.735 32.381 208.298 32.381 208.298 94.97Z" fill="#2ccddc" stroke="transparent" data-fill-palette-color="tertiary"></path></svg></g><defs></defs></svg><rect width="395.52" height="247.2" fill="none" stroke="none" visibility="hidden"></rect></g></svg></g></svg>